# xmcd CD database file
#
# Track frame offsets:
#	150
#	11855
#	22740
#	38212
#	49120
#	62490
#	75565
#	88687
#	112430
#	128422
#	138565
#	152105
#	164455
#	176512
#	189307
#	199885
#
# Disc length: 2822 seconds
#
# Revision: 0
# Processed by: cddbd v1.5.1PL0 Copyright (c) Steve Scherf et al.
# Submitted via: CDex 1.51
#
DISCID=d20b0410
DTITLE=Various Artist - Blues 'N' Brass
DYEAR=1998
DGENRE=Blues
TTITLE0=St Louis Blues
TTITLE1=Sugar Blues
TTITLE2=Revolutionary Blues
TTITLE3=Basin Street Blues
TTITLE4=Apex Blues
TTITLE5=Blues In The Night
TTITLE6=Honky Tonk Blues
TTITLE7=Aircastle Blues
TTITLE8=Sleeping Tiger
TTITLE9=Limehouse Blues
TTITLE10=Lips From New Orleans
TTITLE11=Riverboat Party
TTITLE12=Hot Dog Stomp
TTITLE13=Little Brown Jug
TTITLE14=Special Blues
TTITLE15=Royal Garden Blues
EXTD=YEAR: 1998
EXTT0=
EXTT1=
EXTT2=
EXTT3=
EXTT4=
EXTT5=
EXTT6=
EXTT7=
EXTT8=
EXTT9=
EXTT10=
EXTT11=
EXTT12=
EXTT13=
EXTT14=
EXTT15=
PLAYORDER=
